<svg width="63" height="63" viewBox="0 0 63 63" fill="none" xmlns="http://www.w3.org/2000/svg">
<path fill-rule="evenodd" clip-rule="evenodd" d="M46.6696 15.5563C46.2791 15.1658 45.6459 15.1658 45.2554 15.5563L31.1133 29.6985L16.9711 15.5563C16.5806 15.1658 15.9475 15.1658 15.5569 15.5563C15.1664 15.9469 15.1664 16.58 15.5569 16.9706L29.6991 31.1127L15.5569 45.2548C15.1664 45.6454 15.1664 46.2785 15.5569 46.669C15.9475 47.0596 16.5806 47.0596 16.9711 46.669L31.1133 32.5269L45.2554 46.669C45.6459 47.0596 46.2791 47.0596 46.6696 46.669C47.0602 46.2785 47.0602 45.6454 46.6696 45.2548L32.5275 31.1127L46.6696 16.9706C47.0602 16.58 47.0602 15.9469 46.6696 15.5563Z" fill="#000000"/>
</svg>
