<svg width="24" height="24" viewBox="0 0 24 24" fill="none" xmlns="http://www.w3.org/2000/svg">
<g clip-path="url(#clip0)">
<path d="M23.1551 13.893C23.8711 7.86599 22.8111 4.06098 20.8991 2.33998L20.9001 2.33898C17.8141 -0.600022 7.39208 -1.03502 3.70008 2.47098C2.04208 4.18598 1.45808 6.70299 1.39408 9.81899C1.33008 12.936 1.25408 18.775 6.69508 20.359H6.70008L6.69508 22.778C6.69508 22.778 6.65808 23.758 7.28408 23.955C8.00008 24.187 8.32408 23.732 10.5511 21.072C14.2751 21.395 17.1351 20.655 17.4601 20.547C18.2121 20.295 22.4671 19.732 23.1551 13.893ZM10.9181 19.37C10.9181 19.37 8.56108 22.309 7.82808 23.072C7.58808 23.32 7.32508 23.297 7.32908 22.805C7.32908 22.482 7.34708 18.789 7.34708 18.789C2.73408 17.467 3.00608 12.495 3.05608 9.89399C3.10608 7.29199 3.58208 5.16099 4.98608 3.72598C8.22508 0.68898 17.3621 1.36798 19.6901 3.55598C22.5361 6.07899 21.5231 13.207 21.5291 13.45C20.9441 18.324 17.4961 18.633 16.8621 18.844C16.5911 18.934 14.0761 19.581 10.9181 19.37Z" fill="black"/>
<path d="M12.2219 4.29701C11.8369 4.29701 11.8369 4.89701 12.2219 4.90201C15.2089 4.92501 17.6689 7.00701 17.6959 10.826C17.6959 11.229 18.2859 11.224 18.2809 10.821H18.2799C18.2479 6.70601 15.5619 4.32001 12.2219 4.29701Z" fill="black"/>
<path d="M16.151 10.193C16.142 10.591 16.731 10.61 16.736 10.207C16.785 7.93799 15.3859 6.06899 12.7569 5.87199C12.3719 5.84399 12.3319 6.44899 12.7159 6.47699C14.9959 6.64999 16.197 8.20599 16.151 10.193Z" fill="black"/>
<path d="M15.5207 12.774C15.0267 12.488 14.5237 12.666 14.3157 12.947L13.8807 13.51C13.6597 13.796 13.2467 13.758 13.2467 13.758C10.2327 12.961 9.42672 9.807 9.42672 9.807C9.42672 9.807 9.38972 9.38 9.66572 9.151L10.2097 8.701C10.4817 8.485 10.6537 7.965 10.3767 7.454C9.63672 6.117 9.13972 5.656 8.88672 5.302C8.62072 4.969 8.22072 4.894 7.80472 5.119H7.79572C6.93072 5.625 5.98373 6.572 6.28673 7.547C6.80372 8.575 7.75372 11.852 10.7817 14.328C12.2047 15.499 14.4567 16.699 15.4127 16.976L15.4217 16.99C16.3637 17.304 17.2797 16.32 17.7687 15.429V15.422C17.9857 14.991 17.9137 14.583 17.5967 14.316C17.0347 13.768 16.1867 13.163 15.5207 12.774Z" fill="black"/>
<path d="M13.1689 8.10401C14.1299 8.16001 14.5959 8.66201 14.6459 9.69301C14.6639 10.096 15.2489 10.068 15.2309 9.66501C15.1669 8.31901 14.4649 7.56901 13.2009 7.49901C12.8159 7.47601 12.7799 8.08101 13.1689 8.10401Z" fill="black"/>
</g>
<defs>
<clipPath id="clip0">
<rect width="24" height="24" fill="white"/>
</clipPath>
</defs>
</svg>
