<svg width="57" height="141" viewBox="0 0 57 141" fill="none" xmlns="http://www.w3.org/2000/svg">
<path d="M56.681 135.64C53.9563 135.031 51.2463 134.144 48.3948 132.928C48.3607 132.911 48.2761 132.815 48.2495 132.728C47.9653 131.748 47.8701 130.76 47.9577 129.709C48.5161 122.997 44.5652 115.924 38.5645 112.892C38.4369 112.827 38.3039 112.77 38.1506 112.706L38.0083 112.647C37.8731 112.588 37.7085 112.613 37.5994 112.701C37.4815 112.793 37.423 112.943 37.447 113.094L37.6112 114.123C37.7569 115.034 37.8996 115.925 38.0365 116.817L38.071 117.05C38.4563 119.585 38.8546 122.207 39.6307 124.725C40.3309 126.997 41.4114 128.79 42.9142 130.164C39.7393 128.27 36.7809 125.994 34.094 123.376C34.0376 123.321 33.9706 123.176 33.961 123.056L33.889 121.259C33.8885 121.195 33.8877 121.026 33.9235 120.942C35.2469 117.823 35.5859 114.312 34.9606 110.209C34.3576 106.252 32.6876 102.614 29.9966 99.3938C29.6816 99.0168 29.4037 98.826 29.1704 98.826C29.1136 98.826 29.0622 98.8375 29.0218 98.8588C28.898 98.921 28.8142 99.0415 28.7978 99.1808L28.7258 99.8074C28.6702 100.273 28.6167 100.729 28.5687 101.187C28.4858 101.993 28.3948 102.797 28.3035 103.602L28.2904 103.719C28.063 105.729 27.8272 107.808 27.7026 109.889C27.5578 112.317 27.6007 115.153 29.0193 117.776C29.0269 117.789 29.0336 117.803 29.0412 117.817C27.0693 115.322 25.2692 112.637 23.6633 109.793C23.5214 109.54 23.5092 109.318 23.5357 108.996C23.6498 107.634 24.2755 106.527 24.9345 105.535C26.2074 103.613 26.9779 101.341 27.4331 98.1682C28.0694 93.7312 27.4268 89.2802 25.5244 84.9378C25.4722 84.8181 25.4111 84.7026 25.3459 84.5787L25.1972 84.295C25.1261 84.1565 24.9741 84.0654 24.8136 84.0726C24.6536 84.0811 24.5126 84.1838 24.4545 84.3329C23.993 85.5103 23.5466 86.6447 23.1033 87.7705L22.8199 88.49C21.8742 90.893 20.8135 93.6984 20.197 96.593C19.7625 98.6355 19.736 100.607 20.117 102.484C18.6382 98.9231 17.4226 95.1604 16.4916 91.2589C16.4811 91.2154 16.4777 91.103 16.5699 90.8435C17.0053 89.638 17.7982 88.545 18.8029 87.7658C21.0021 86.0594 22.2497 83.6875 23.1799 81.5926C25.0844 77.3081 25.601 72.7565 24.7589 67.6767C24.7501 67.6234 24.7341 67.5706 24.7151 67.5131L24.6999 67.4671C24.6633 67.3534 24.5799 67.2614 24.4696 67.2132C24.3618 67.1676 24.2262 67.1762 24.1425 67.2179C24.0582 67.249 23.9307 67.2963 23.8477 67.4194C23.3711 68.0635 22.8872 68.7135 22.403 69.3631L22.3218 69.4726C21.1006 71.1131 19.8379 72.8084 18.6243 74.4975C17.2184 76.4489 16.2255 78.3457 15.5884 80.2967C15.281 81.239 15.0802 82.1459 14.9855 83.0268C14.5808 79.8614 14.3513 76.6295 14.3012 73.3707C14.2894 72.5929 14.3871 71.9748 14.9122 71.2979C15.468 70.5763 15.9872 70.1733 16.703 69.9075C19.6442 68.8204 21.531 66.5231 22.846 64.6433C24.9703 61.6022 26.2162 58.0636 26.655 53.8251C26.7017 53.3889 26.7282 52.9476 26.7556 52.4807L26.7624 52.3747C26.7754 52.1476 26.7893 51.9112 26.807 51.6607C26.8179 51.4946 26.7299 51.3387 26.583 51.2633C26.4407 51.1909 26.2583 51.2122 26.1345 51.3182L25.7855 51.6207C25.6541 51.734 25.5417 51.8311 25.425 51.9257C24.8646 52.3811 24.302 52.8317 23.7382 53.2837L23.6793 53.3306C22.4418 54.3222 21.1617 55.3476 19.9393 56.4066C17.5675 58.453 16.0402 60.49 15.1328 62.818C14.9829 63.2018 14.8516 63.5813 14.7387 63.957C15.1118 60.2578 15.7177 56.6149 16.5497 53.0805C16.6508 52.6482 16.7072 52.5212 16.9148 52.4522C17.0453 52.4075 17.167 52.3214 17.2559 52.2149C17.8593 51.521 18.6538 51.4111 19.4235 51.3953C21.9921 51.3344 24.0292 50.0382 25.6827 48.7781C29.7372 45.6889 32.5289 37.8509 32.5289 37.5851C32.5289 37.4467 32.4607 37.3176 32.3449 37.2396C32.2308 37.1634 32.0767 37.1527 31.9605 37.2051C31.1158 37.5676 30.2711 37.9208 29.3966 38.2867C27.4723 39.0939 25.4827 39.928 23.5719 40.84C21.6489 41.7606 20.1292 42.9916 19.0429 44.5064C20.0783 41.5301 21.2788 38.6121 22.6228 35.8079C22.7773 35.5055 23.5033 35.1843 24.5442 35.1843C24.8827 35.1843 25.2107 35.2209 25.4941 35.2899C27.9397 35.8829 30.3646 35.5234 33.0485 34.1666C35.7943 32.7779 38.0723 30.5075 40.0126 27.2236C40.0496 27.1601 40.1225 26.9663 40.1616 26.8577C40.2109 26.7248 40.1911 26.5782 40.1094 26.4671C40.0336 26.3614 39.9123 26.2984 39.7578 26.2984C39.7566 26.2984 39.7557 26.2984 39.7544 26.2984L38.7851 26.3601C38.191 26.3981 37.6142 26.4351 37.0373 26.4649L36.4213 26.4965C34.582 26.5902 32.6796 26.6864 30.8185 27.135C28.6959 27.6513 27.1375 28.444 25.9425 29.6197C27.3569 27.2381 28.8715 24.9719 30.4669 22.8492C30.5099 22.793 30.7158 22.7069 30.8846 22.6784C30.9688 22.6584 31.2754 22.5932 31.683 22.5932C32.2236 22.5932 32.6969 22.7044 33.0982 22.9276C35.6478 24.1889 38.511 24.2826 41.6198 23.2024C44.1698 22.321 46.3294 20.684 48.2226 18.1992C48.2841 18.1192 48.3396 18.0318 48.3902 17.9398C48.4478 17.8338 48.4516 17.717 48.4011 17.6105C48.2546 17.2996 47.6204 17.1535 47.3535 17.1049C46.6983 16.989 45.956 16.857 45.2199 16.756C44.8827 16.7083 44.545 16.6585 44.2064 16.6078L44.163 16.601C43.0161 16.4297 41.8303 16.2525 40.6357 16.1916C38.4529 16.0787 36.5147 16.5294 34.9286 17.527C35.9951 16.3786 37.0849 15.289 38.1914 14.2653C38.5413 13.9424 38.9372 13.617 39.4765 13.2085C39.5182 13.1761 39.6243 13.1382 39.7544 13.1305C43.5773 12.9793 46.7585 11.272 49.4786 7.91185C50.9604 6.0827 52.0964 3.7756 52.9525 0.858494L52.9819 0.758389C53.0733 0.451684 53.1238 0.282996 52.9137 0.0853418C52.7516 -0.0671586 52.4661 -0.0220036 51.7242 0.27533C51.0505 0.537307 50.3726 0.791616 49.6765 1.05274C48.2782 1.57712 46.8318 2.11939 45.4359 2.73195C43.1032 3.75771 41.2404 5.31253 39.9001 7.35254C38.8795 8.90481 38.4761 10.4643 38.666 12.112C38.6647 12.1303 38.6487 12.1742 38.6462 12.1793C36.2112 14.3062 33.8835 16.7006 31.4935 19.5504C33.0872 17.0853 34.126 14.247 34.6473 10.9567C35.1728 7.63965 35.2061 4.68719 34.7496 1.93111C34.7206 1.75859 34.6814 1.58607 34.6313 1.3701L34.5568 1.0374C34.5231 0.894702 34.417 0.779262 34.2776 0.73496C34.1382 0.693214 33.982 0.730274 33.878 0.830379C33.7113 0.989269 33.5479 1.13921 33.3883 1.2849L33.2759 1.38756C32.8674 1.75987 32.4817 2.1113 32.1327 2.50874C28.741 6.37961 26.7628 10.4682 26.0853 15.0082C25.7766 17.0602 25.9046 18.8071 26.4769 20.3475C26.6663 20.8578 26.9619 21.3136 27.2563 21.766C27.391 21.9726 27.5257 22.18 27.6491 22.393C27.7401 22.5459 27.7477 22.5855 27.7472 22.5783C27.6912 23.1853 27.6108 23.8618 27.5022 24.6737C27.4975 24.6839 27.4824 24.7078 27.434 24.7725L27.3948 24.8275C25.54 27.4357 23.8288 30.1854 22.2889 33.0314C22.8944 30.9058 23.3765 28.2153 23.3424 25.089C23.3012 21.3391 22.4477 17.9948 20.7322 14.8634C20.6644 14.7416 20.5415 14.6623 20.3692 14.6504C20.2442 14.6504 20.1238 14.713 20.045 14.82C19.9937 14.8924 19.9414 14.9605 19.8918 15.0253C19.781 15.1701 19.6774 15.3073 19.5848 15.4538C18.2188 17.6208 17.4862 20.0101 16.9999 21.8499C16.111 25.2241 15.7025 28.0415 15.7143 30.7171C15.7211 32.9914 16.1308 34.7396 17.0041 36.219C17.2757 36.6795 17.6176 37.0825 17.9612 37.488C18.1435 37.7031 18.3309 37.9242 18.5005 38.1508C18.6193 38.3084 18.6766 38.469 18.6799 38.5585C18.7022 39.0978 18.6904 39.646 18.6791 40.1759L18.6711 40.5423C18.6698 40.6053 18.6555 40.6777 18.634 40.7331C17.5376 43.4206 16.5737 46.2137 15.7518 49.0823C15.8726 48.1055 15.9409 47.1598 15.9581 46.2372C16.0575 41.0002 14.4696 36.3234 11.2375 32.3349L10.5638 31.5047C10.4859 31.4071 10.3705 31.3518 10.2476 31.3518L10.1802 31.3577C10.0362 31.382 9.91494 31.483 9.86483 31.6206C9.80335 31.7863 9.74314 31.9426 9.68461 32.0938C9.57176 32.386 9.46523 32.6629 9.37512 32.9445C8.68162 35.1421 8.3414 37.5429 8.27234 40.7276L8.27108 40.7897C8.21929 43.1066 8.14813 46.2806 9.0888 49.3178C10.0147 52.3078 11.6476 53.8187 11.9643 54.0901L11.998 54.1208C12.8599 54.899 13.4212 55.6108 13.5374 56.073C13.5841 56.2596 13.6317 56.4466 13.6873 56.6315C13.9332 57.454 13.7795 58.2378 13.6136 59.0843C13.5311 59.5115 13.4452 59.9528 13.4153 60.4057C13.2965 62.2178 13.1509 64.0606 13.0098 65.8424L12.9972 66.0073C12.961 66.4618 12.9247 66.9163 12.889 67.3708C12.5294 63.2934 11.1946 59.5869 8.89805 56.309C7.49168 54.3035 5.81498 52.5877 3.91343 51.2079C3.83132 51.1483 3.745 51.095 3.62963 51.0256C3.57363 50.9928 3.50878 50.9536 3.43004 50.9038C3.3113 50.8318 3.15887 50.8254 3.03634 50.8859C2.91086 50.9476 2.82455 51.0733 2.81023 51.2156C2.78454 51.4733 2.75465 51.7229 2.72307 51.9819C2.65949 52.5123 2.59927 53.0132 2.59675 53.5278C2.56854 58.8619 3.68395 63.8603 5.91309 68.3825C6.53417 69.6443 7.35483 70.7356 8.35319 71.6276C9.34312 72.5073 10.4114 73.0261 11.6169 73.2127C11.6434 73.2174 11.7066 73.2562 11.7163 73.2638C11.7815 73.3963 11.8493 73.5292 11.9171 73.6625C12.158 74.1332 12.4068 74.6201 12.5306 75.1083C12.6338 75.5211 12.6338 75.9722 12.6338 76.4501C12.6338 76.6252 12.6338 76.8016 12.6393 76.9745C12.755 81.1065 12.9071 82.5455 13.5606 86.2374C13.1618 85.1397 12.6612 84.039 12.0148 82.98C9.39744 78.6942 6.07226 75.7852 1.84935 74.0877C1.58071 73.9782 1.31122 73.8994 0.998788 73.8074L0.93647 73.7886C0.809728 73.7511 0.675407 73.7111 0.531822 73.6668C0.402133 73.6238 0.254337 73.6532 0.148649 73.7418C0.0433815 73.8299 -0.0117786 73.965 0.00211671 74.1056C0.0332759 74.3986 0.0547504 74.6836 0.0745407 74.9618C0.117911 75.5718 0.158755 76.1477 0.304866 76.7177C1.66745 82.042 3.92269 86.2826 7.19904 89.6823C8.59994 91.1358 10.0762 91.969 11.7121 92.2301C12.1247 92.2953 12.6291 92.3034 13.4831 92.2497L13.729 92.2348C13.7665 92.2327 13.7993 92.2305 13.8292 92.2305C13.8966 92.2305 13.902 92.2305 13.9488 92.3004L15.0928 93.8897C15.1076 93.9106 15.129 93.986 15.1438 94.038L15.1606 94.095C16.348 98.1674 17.8214 102.09 19.5587 105.812C18.7768 104.721 17.9199 103.724 16.9649 102.786C12.5731 98.4754 5.06464 98.3506 4.22292 98.3506L4.11807 98.3514L4.05196 98.3638C3.84564 98.4379 3.73406 98.6611 3.79764 98.8711C3.85617 99.0692 3.91091 99.2694 3.97364 99.5045C4.09365 99.9463 4.21829 100.403 4.39303 100.844C5.22506 102.947 6.57375 104.971 8.63825 107.214C10.0568 108.752 11.6561 110.311 13.7357 111.297C16.0133 112.379 18.0698 112.643 20.1149 112.114C20.4627 112.021 20.8627 111.904 21.2068 111.678C21.4518 111.519 21.5188 111.524 21.7596 111.706C22.0451 111.921 22.3487 112.101 22.6434 112.275C22.8064 112.372 22.9706 112.47 23.1239 112.568C23.1483 112.588 23.2005 112.675 23.2199 112.707C25.0549 115.735 27.0765 118.549 29.2593 121.116C28.0786 120.247 26.8664 119.618 25.5787 119.199C21.6438 117.917 17.5195 118.08 13.4347 119.678C12.8249 119.917 12.1567 120.279 12.1121 120.304C12.0186 120.366 11.9542 120.467 11.934 120.582C11.9163 120.696 11.9453 120.812 12.0135 120.9C12.1411 121.068 12.2645 121.237 12.3866 121.404L12.4136 121.441C12.6894 121.821 13.0018 122.251 13.3521 122.631C14.9299 124.343 16.8756 125.49 18.7435 126.475C21.312 127.823 23.9387 128.549 26.551 128.634C26.6739 128.639 26.7969 128.641 26.9194 128.641C29.3225 128.641 31.1983 127.84 32.6443 126.201C32.662 126.188 32.7247 126.164 32.7592 126.164C33.3117 126.204 33.8367 126.285 34.2292 126.351C34.2911 126.362 34.3673 126.4 34.4149 126.443C36.8305 128.607 39.389 130.506 42.0615 132.122C41.6564 132 41.2391 131.895 40.8122 131.81C37.9561 131.254 35.0414 131.603 31.8409 132.889C29.6816 133.76 27.6735 135.039 25.7017 136.8C25.5391 136.944 25.5164 137.193 25.6503 137.365C26.348 138.263 27.2558 138.766 28.0521 139.139C29.9941 140.052 32.1861 140.637 34.7559 140.927C34.7635 140.928 35.5892 141 36.7472 141C37.583 141 38.3607 140.962 39.0576 140.888C39.7237 140.817 40.3882 140.701 41.0328 140.545C43.9938 139.815 46.0002 138.316 47.1497 135.988C47.1703 135.968 47.2588 135.916 47.3708 135.888C47.9051 135.754 48.386 135.66 48.8432 135.598C48.951 135.58 49.0854 135.61 49.2546 135.679C51.2993 136.476 53.4632 137.14 55.6818 137.652C55.713 137.659 55.7454 137.663 55.7778 137.663C55.9269 137.663 56.0642 137.58 56.1366 137.445C56.3484 137.046 56.6065 136.664 56.9034 136.308C56.9964 136.196 57.0242 136.047 56.9783 135.909C56.9345 135.775 56.8233 135.674 56.681 135.64Z" fill="white"/>
</svg>
